<svg xmlns="http://www.w3.org/2000/svg" xmlns:xlink="http://www.w3.org/1999/xlink" width="500" zoomAndPan="magnify" viewBox="0 0 375 374.999991" height="500" preserveAspectRatio="xMidYMid meet" version="1.0"><defs><clipPath id="9fa3168bb2"><path d="M 100.882812 375 L 274.117188 375 C 275.765625 375 277.417969 374.960938 279.066406 374.878906 C 280.714844 374.796875 282.359375 374.675781 284.003906 374.515625 C 285.648438 374.351562 287.285156 374.148438 288.917969 373.90625 C 290.550781 373.664062 292.175781 373.382812 293.796875 373.0625 C 295.417969 372.738281 297.027344 372.378906 298.628906 371.976562 C 300.230469 371.574219 301.820312 371.136719 303.402344 370.65625 C 304.980469 370.175781 306.546875 369.660156 308.101562 369.101562 C 309.65625 368.546875 311.195312 367.953125 312.722656 367.320312 C 314.246094 366.6875 315.757812 366.019531 317.25 365.3125 C 318.742188 364.609375 320.214844 363.867188 321.671875 363.085938 C 323.128906 362.308594 324.5625 361.496094 325.980469 360.648438 C 327.398438 359.796875 328.792969 358.914062 330.164062 357.996094 C 331.535156 357.082031 332.886719 356.128906 334.210938 355.148438 C 335.539062 354.164062 336.839844 353.148438 338.117188 352.101562 C 339.390625 351.054688 340.640625 349.976562 341.867188 348.867188 C 343.089844 347.757812 344.285156 346.617188 345.453125 345.453125 C 346.617188 344.285156 347.757812 343.089844 348.867188 341.867188 C 349.976562 340.640625 351.054688 339.390625 352.101562 338.117188 C 353.148438 336.839844 354.164062 335.539062 355.148438 334.210938 C 356.128906 332.886719 357.082031 331.535156 357.996094 330.164062 C 358.914062 328.792969 359.796875 327.398438 360.648438 325.980469 C 361.496094 324.5625 362.308594 323.128906 363.085938 321.671875 C 363.867188 320.214844 364.609375 318.742188 365.3125 317.25 C 366.019531 315.757812 366.6875 314.246094 367.320312 312.722656 C 367.953125 311.195312 368.546875 309.65625 369.101562 308.101562 C 369.660156 306.546875 370.175781 304.980469 370.65625 303.402344 C 371.136719 301.820312 371.574219 300.230469 371.976562 298.628906 C 372.378906 297.027344 372.738281 295.417969 373.0625 293.796875 C 373.382812 292.175781 373.664062 290.550781 373.90625 288.917969 C 374.148438 287.285156 374.351562 285.648438 374.515625 284.003906 C 374.675781 282.359375 374.796875 280.714844 374.878906 279.066406 C 374.960938 277.417969 375 275.765625 375 274.117188 L 375 100.882812 C 375 99.234375 374.960938 97.582031 374.878906 95.933594 C 374.796875 94.285156 374.675781 92.640625 374.515625 90.996094 C 374.351562 89.351562 374.148438 87.714844 373.90625 86.082031 C 373.664062 84.449219 373.382812 82.824219 373.0625 81.203125 C 372.738281 79.582031 372.378906 77.972656 371.976562 76.371094 C 371.574219 74.769531 371.136719 73.179688 370.65625 71.597656 C 370.175781 70.019531 369.660156 68.453125 369.101562 66.898438 C 368.546875 65.34375 367.953125 63.804688 367.320312 62.277344 C 366.6875 60.753906 366.019531 59.242188 365.3125 57.75 C 364.609375 56.257812 363.867188 54.785156 363.085938 53.328125 C 362.308594 51.871094 361.496094 50.4375 360.648438 49.019531 C 359.796875 47.601562 358.914062 46.207031 357.996094 44.835938 C 357.082031 43.464844 356.128906 42.113281 355.148438 40.789062 C 354.164062 39.460938 353.148438 38.160156 352.101562 36.882812 C 351.054688 35.609375 349.976562 34.359375 348.867188 33.132812 C 347.757812 31.910156 346.617188 30.714844 345.453125 29.546875 C 344.285156 28.382812 343.089844 27.242188 341.867188 26.132812 C 340.640625 25.023438 339.390625 23.945312 338.117188 22.898438 C 336.839844 21.851562 335.539062 20.835938 334.210938 19.851562 C 332.886719 18.871094 331.535156 17.917969 330.164062 17.003906 C 328.792969 16.085938 327.398438 15.203125 325.980469 14.351562 C 324.5625 13.503906 323.128906 12.691406 321.671875 11.914062 C 320.214844 11.132812 318.742188 10.390625 317.25 9.6875 C 315.757812 8.980469 314.246094 8.3125 312.722656 7.679688 C 311.195312 7.046875 309.65625 6.453125 308.101562 5.898438 C 306.546875 5.339844 304.980469 4.824219 303.402344 4.34375 C 301.820312 3.863281 300.230469 3.425781 298.628906 3.023438 C 297.027344 2.621094 295.417969 2.261719 293.796875 1.9375 C 292.175781 1.617188 290.550781 1.335938 288.917969 1.09375 C 287.285156 0.851562 285.648438 0.648438 284.003906 0.484375 C 282.359375 0.324219 280.714844 0.203125 279.066406 0.121094 C 277.417969 0.0390625 275.765625 0 274.117188 0 L 100.882812 0 C 99.234375 0 97.582031 0.0390625 95.933594 0.121094 C 94.285156 0.203125 92.640625 0.324219 90.996094 0.484375 C 89.351562 0.648438 87.714844 0.851562 86.082031 1.09375 C 84.449219 1.335938 82.820312 1.617188 81.203125 1.9375 C 79.582031 2.261719 77.972656 2.621094 76.371094 3.023438 C 74.769531 3.425781 73.179688 3.863281 71.597656 4.34375 C 70.019531 4.824219 68.453125 5.339844 66.898438 5.898438 C 65.34375 6.453125 63.804688 7.046875 62.277344 7.679688 C 60.753906 8.3125 59.242188 8.980469 57.75 9.6875 C 56.257812 10.390625 54.785156 11.132812 53.328125 11.914062 C 51.871094 12.691406 50.4375 13.503906 49.019531 14.351562 C 47.601562 15.203125 46.207031 16.085938 44.835938 17.003906 C 43.464844 17.917969 42.113281 18.871094 40.789062 19.851562 C 39.460938 20.835938 38.160156 21.851562 36.882812 22.898438 C 35.609375 23.945312 34.359375 25.023438 33.132812 26.132812 C 31.910156 27.242188 30.714844 28.382812 29.546875 29.546875 C 28.382812 30.714844 27.242188 31.910156 26.132812 33.132812 C 25.023438 34.359375 23.945312 35.609375 22.898438 36.882812 C 21.851562 38.160156 20.835938 39.460938 19.851562 40.789062 C 18.871094 42.113281 17.917969 43.464844 17.003906 44.835938 C 16.085938 46.207031 15.203125 47.601562 14.351562 49.019531 C 13.503906 50.4375 12.691406 51.871094 11.914062 53.328125 C 11.132812 54.785156 10.390625 56.257812 9.6875 57.75 C 8.980469 59.242188 8.3125 60.753906 7.679688 62.277344 C 7.046875 63.804688 6.453125 65.34375 5.898438 66.898438 C 5.339844 68.453125 4.824219 70.019531 4.34375 71.597656 C 3.863281 73.179688 3.425781 74.769531 3.023438 76.371094 C 2.621094 77.972656 2.261719 79.582031 1.9375 81.203125 C 1.617188 82.824219 1.335938 84.449219 1.09375 86.082031 C 0.851562 87.714844 0.648438 89.351562 0.484375 90.996094 C 0.324219 92.640625 0.203125 94.285156 0.121094 95.933594 C 0.0390625 97.582031 0 99.234375 0 100.882812 L 0 274.117188 C 0 275.765625 0.0390625 277.417969 0.121094 279.066406 C 0.203125 280.714844 0.324219 282.359375 0.484375 284.003906 C 0.648438 285.648438 0.851562 287.285156 1.09375 288.917969 C 1.335938 290.550781 1.617188 292.175781 1.9375 293.796875 C 2.261719 295.417969 2.621094 297.027344 3.023438 298.628906 C 3.425781 300.230469 3.863281 301.820312 4.34375 303.402344 C 4.824219 304.980469 5.339844 306.546875 5.898438 308.101562 C 6.453125 309.65625 7.046875 311.195312 7.679688 312.722656 C 8.3125 314.246094 8.980469 315.757812 9.6875 317.25 C 10.390625 318.742188 11.132812 320.214844 11.914062 321.671875 C 12.691406 323.128906 13.503906 324.5625 14.351562 325.980469 C 15.203125 327.398438 16.085938 328.792969 17.003906 330.164062 C 17.917969 331.535156 18.871094 332.886719 19.851562 334.210938 C 20.835938 335.539062 21.851562 336.839844 22.898438 338.117188 C 23.945312 339.390625 25.023438 340.640625 26.132812 341.867188 C 27.242188 343.089844 28.382812 344.285156 29.546875 345.453125 C 30.714844 346.617188 31.910156 347.757812 33.132812 348.867188 C 34.359375 349.976562 35.609375 351.054688 36.882812 352.101562 C 38.160156 353.148438 39.460938 354.164062 40.789062 355.148438 C 42.113281 356.128906 43.464844 357.082031 44.835938 357.996094 C 46.207031 358.914062 47.601562 359.796875 49.019531 360.648438 C 50.4375 361.496094 51.871094 362.308594 53.328125 363.085938 C 54.785156 363.867188 56.257812 364.609375 57.75 365.3125 C 59.242188 366.019531 60.753906 366.6875 62.277344 367.320312 C 63.804688 367.953125 65.34375 368.546875 66.898438 369.101562 C 68.453125 369.660156 70.019531 370.175781 71.597656 370.65625 C 73.179688 371.136719 74.769531 371.574219 76.371094 371.976562 C 77.972656 372.378906 79.582031 372.738281 81.203125 373.0625 C 82.820312 373.382812 84.449219 373.664062 86.082031 373.90625 C 87.714844 374.148438 89.351562 374.351562 90.996094 374.515625 C 92.640625 374.675781 94.285156 374.796875 95.933594 374.878906 C 97.582031 374.960938 99.234375 375 100.882812 375 Z M 100.882812 375 " clip-rule="nonzero"/></clipPath><linearGradient x1="21.351883" gradientTransform="matrix(0, 1.588983, 1.588983, 0, 0.0000045, 0.00003)" y1="-15.462291" x2="214.648923" gradientUnits="userSpaceOnUse" y2="251.461702" id="beadb2b2cc"><stop stop-opacity="1" stop-color="rgb(95.288086%, 53.323364%, 34.828186%)" offset="0"/><stop stop-opacity="1" stop-color="rgb(94.98291%, 53.091431%, 35.127258%)" offset="0.00390625"/><stop stop-opacity="1" stop-color="rgb(94.67926%, 52.861023%, 35.426331%)" offset="0.0078125"/><stop stop-opacity="1" stop-color="rgb(94.374084%, 52.629089%, 35.725403%)" offset="0.0117188"/><stop stop-opacity="1" stop-color="rgb(94.068909%, 52.397156%, 36.026001%)" offset="0.015625"/><stop stop-opacity="1" stop-color="rgb(93.763733%, 52.165222%, 36.325073%)" offset="0.0195313"/><stop stop-opacity="1" stop-color="rgb(93.460083%, 51.934814%, 36.624146%)" offset="0.0234375"/><stop stop-opacity="1" stop-color="rgb(93.154907%, 51.702881%, 36.923218%)" offset="0.0273438"/><stop stop-opacity="1" stop-color="rgb(92.849731%, 51.472473%, 37.223816%)" offset="0.03125"/><stop stop-opacity="1" stop-color="rgb(92.544556%, 51.24054%, 37.522888%)" offset="0.0351562"/><stop stop-opacity="1" stop-color="rgb(92.240906%, 51.010132%, 37.82196%)" offset="0.0390625"/><stop stop-opacity="1" stop-color="rgb(91.93573%, 50.778198%, 38.121033%)" offset="0.0429688"/><stop stop-opacity="1" stop-color="rgb(91.63208%, 50.547791%, 38.421631%)" offset="0.046875"/><stop stop-opacity="1" stop-color="rgb(91.326904%, 50.315857%, 38.720703%)" offset="0.0507812"/><stop stop-opacity="1" stop-color="rgb(91.021729%, 50.083923%, 39.019775%)" offset="0.0546875"/><stop stop-opacity="1" stop-color="rgb(90.716553%, 49.85199%, 39.318848%)" offset="0.0585938"/><stop stop-opacity="1" stop-color="rgb(90.412903%, 49.621582%, 39.619446%)" offset="0.0625"/><stop stop-opacity="1" stop-color="rgb(90.107727%, 49.389648%, 39.918518%)" offset="0.0664062"/><stop stop-opacity="1" stop-color="rgb(89.802551%, 49.159241%, 40.21759%)" offset="0.0703125"/><stop stop-opacity="1" stop-color="rgb(89.497375%, 48.927307%, 40.516663%)" offset="0.0742188"/><stop stop-opacity="1" stop-color="rgb(89.193726%, 48.696899%, 40.817261%)" offset="0.078125"/><stop stop-opacity="1" stop-color="rgb(88.88855%, 48.464966%, 41.116333%)" offset="0.0820312"/><stop stop-opacity="1" stop-color="rgb(88.583374%, 48.233032%, 41.415405%)" offset="0.0859375"/><stop stop-opacity="1" stop-color="rgb(88.278198%, 48.001099%, 41.714478%)" offset="0.0898438"/><stop stop-opacity="1" stop-color="rgb(87.974548%, 47.770691%, 42.015076%)" offset="0.09375"/><stop stop-opacity="1" stop-color="rgb(87.669373%, 47.538757%, 42.314148%)" offset="0.0976562"/><stop stop-opacity="1" stop-color="rgb(87.364197%, 47.30835%, 42.61322%)" offset="0.101562"/><stop stop-opacity="1" stop-color="rgb(87.059021%, 47.076416%, 42.912292%)" offset="0.105469"/><stop stop-opacity="1" stop-color="rgb(86.755371%, 46.846008%, 43.212891%)" offset="0.109375"/><stop stop-opacity="1" stop-color="rgb(86.450195%, 46.614075%, 43.511963%)" offset="0.113281"/><stop stop-opacity="1" stop-color="rgb(86.146545%, 46.383667%, 43.811035%)" offset="0.117187"/><stop stop-opacity="1" stop-color="rgb(85.84137%, 46.151733%, 44.110107%)" offset="0.121094"/><stop stop-opacity="1" stop-color="rgb(85.536194%, 45.9198%, 44.410706%)" offset="0.125"/><stop stop-opacity="1" stop-color="rgb(85.231018%, 45.687866%, 44.709778%)" offset="0.128906"/><stop stop-opacity="1" stop-color="rgb(84.927368%, 45.457458%, 45.00885%)" offset="0.132812"/><stop stop-opacity="1" stop-color="rgb(84.622192%, 45.225525%, 45.307922%)" offset="0.136719"/><stop stop-opacity="1" stop-color="rgb(84.317017%, 44.995117%, 45.606995%)" offset="0.140625"/><stop stop-opacity="1" stop-color="rgb(84.011841%, 44.763184%, 45.906067%)" offset="0.144531"/><stop stop-opacity="1" stop-color="rgb(83.708191%, 44.532776%, 46.206665%)" offset="0.148437"/><stop stop-opacity="1" stop-color="rgb(83.403015%, 44.300842%, 46.505737%)" offset="0.152344"/><stop stop-opacity="1" stop-color="rgb(83.097839%, 44.068909%, 46.80481%)" offset="0.15625"/><stop stop-opacity="1" stop-color="rgb(82.792664%, 43.836975%, 47.103882%)" offset="0.160156"/><stop stop-opacity="1" stop-color="rgb(82.489014%, 43.606567%, 47.40448%)" offset="0.164062"/><stop stop-opacity="1" stop-color="rgb(82.183838%, 43.374634%, 47.703552%)" offset="0.167969"/><stop stop-opacity="1" stop-color="rgb(81.878662%, 43.144226%, 48.002625%)" offset="0.171875"/><stop stop-opacity="1" stop-color="rgb(81.573486%, 42.912292%, 48.301697%)" offset="0.175781"/><stop stop-opacity="1" stop-color="rgb(81.269836%, 42.681885%, 48.602295%)" offset="0.179687"/><stop stop-opacity="1" stop-color="rgb(80.964661%, 42.449951%, 48.901367%)" offset="0.183594"/><stop stop-opacity="1" stop-color="rgb(80.661011%, 42.219543%, 49.200439%)" offset="0.1875"/><stop stop-opacity="1" stop-color="rgb(80.355835%, 41.98761%, 49.499512%)" offset="0.191406"/><stop stop-opacity="1" stop-color="rgb(80.050659%, 41.755676%, 49.80011%)" offset="0.195312"/><stop stop-opacity="1" stop-color="rgb(79.745483%, 41.523743%, 50.099182%)" offset="0.199219"/><stop stop-opacity="1" stop-color="rgb(79.441833%, 41.293335%, 50.398254%)" offset="0.203125"/><stop stop-opacity="1" stop-color="rgb(79.136658%, 41.061401%, 50.697327%)" offset="0.207031"/><stop stop-opacity="1" stop-color="rgb(78.831482%, 40.830994%, 50.997925%)" offset="0.210937"/><stop stop-opacity="1" stop-color="rgb(78.526306%, 40.59906%, 51.296997%)" offset="0.214844"/><stop stop-opacity="1" stop-color="rgb(78.222656%, 40.368652%, 51.596069%)" offset="0.21875"/><stop stop-opacity="1" stop-color="rgb(77.91748%, 40.136719%, 51.895142%)" offset="0.222656"/><stop stop-opacity="1" stop-color="rgb(77.612305%, 39.904785%, 52.19574%)" offset="0.226562"/><stop stop-opacity="1" stop-color="rgb(77.307129%, 39.672852%, 52.494812%)" offset="0.230469"/><stop stop-opacity="1" stop-color="rgb(77.003479%, 39.442444%, 52.793884%)" offset="0.234375"/><stop stop-opacity="1" stop-color="rgb(76.698303%, 39.21051%, 53.092957%)" offset="0.238281"/><stop stop-opacity="1" stop-color="rgb(76.393127%, 38.980103%, 53.393555%)" offset="0.242187"/><stop stop-opacity="1" stop-color="rgb(76.087952%, 38.748169%, 53.692627%)" offset="0.246094"/><stop stop-opacity="1" stop-color="rgb(75.784302%, 38.517761%, 53.991699%)" offset="0.25"/><stop stop-opacity="1" stop-color="rgb(75.479126%, 38.285828%, 54.290771%)" offset="0.253906"/><stop stop-opacity="1" stop-color="rgb(75.175476%, 38.05542%, 54.59137%)" offset="0.257812"/><stop stop-opacity="1" stop-color="rgb(74.8703%, 37.823486%, 54.890442%)" offset="0.261719"/><stop stop-opacity="1" stop-color="rgb(74.565125%, 37.591553%, 55.189514%)" offset="0.265625"/><stop stop-opacity="1" stop-color="rgb(74.259949%, 37.359619%, 55.488586%)" offset="0.269531"/><stop stop-opacity="1" stop-color="rgb(73.956299%, 37.129211%, 55.789185%)" offset="0.273437"/><stop stop-opacity="1" stop-color="rgb(73.651123%, 36.897278%, 56.088257%)" offset="0.277344"/><stop stop-opacity="1" stop-color="rgb(73.345947%, 36.66687%, 56.387329%)" offset="0.28125"/><stop stop-opacity="1" stop-color="rgb(73.040771%, 36.434937%, 56.686401%)" offset="0.285156"/><stop stop-opacity="1" stop-color="rgb(72.737122%, 36.204529%, 56.987%)" offset="0.289062"/><stop stop-opacity="1" stop-color="rgb(72.431946%, 35.972595%, 57.286072%)" offset="0.292969"/><stop stop-opacity="1" stop-color="rgb(72.12677%, 35.740662%, 57.585144%)" offset="0.296875"/><stop stop-opacity="1" stop-color="rgb(71.821594%, 35.508728%, 57.884216%)" offset="0.300781"/><stop stop-opacity="1" stop-color="rgb(71.517944%, 35.27832%, 58.184814%)" offset="0.304687"/><stop stop-opacity="1" stop-color="rgb(71.212769%, 35.046387%, 58.483887%)" offset="0.308594"/><stop stop-opacity="1" stop-color="rgb(70.907593%, 34.815979%, 58.782959%)" offset="0.3125"/><stop stop-opacity="1" stop-color="rgb(70.602417%, 34.584045%, 59.082031%)" offset="0.316406"/><stop stop-opacity="1" stop-color="rgb(70.298767%, 34.353638%, 59.382629%)" offset="0.320312"/><stop stop-opacity="1" stop-color="rgb(69.993591%, 34.121704%, 59.681702%)" offset="0.324219"/><stop stop-opacity="1" stop-color="rgb(69.689941%, 33.891296%, 59.980774%)" offset="0.328125"/><stop stop-opacity="1" stop-color="rgb(69.384766%, 33.659363%, 60.279846%)" offset="0.332031"/><stop stop-opacity="1" stop-color="rgb(69.07959%, 33.427429%, 60.578918%)" offset="0.335937"/><stop stop-opacity="1" stop-color="rgb(68.774414%, 33.195496%, 60.877991%)" offset="0.339844"/><stop stop-opacity="1" stop-color="rgb(68.470764%, 32.965088%, 61.178589%)" offset="0.34375"/><stop stop-opacity="1" stop-color="rgb(68.165588%, 32.733154%, 61.477661%)" offset="0.347656"/><stop stop-opacity="1" stop-color="rgb(67.860413%, 32.502747%, 61.776733%)" offset="0.351562"/><stop stop-opacity="1" stop-color="rgb(67.555237%, 32.270813%, 62.075806%)" offset="0.355469"/><stop stop-opacity="1" stop-color="rgb(67.251587%, 32.040405%, 62.376404%)" offset="0.359375"/><stop stop-opacity="1" stop-color="rgb(66.946411%, 31.808472%, 62.675476%)" offset="0.363281"/><stop stop-opacity="1" stop-color="rgb(66.641235%, 31.576538%, 62.974548%)" offset="0.367187"/><stop stop-opacity="1" stop-color="rgb(66.33606%, 31.344604%, 63.273621%)" offset="0.371094"/><stop stop-opacity="1" stop-color="rgb(66.03241%, 31.114197%, 63.574219%)" offset="0.375"/><stop stop-opacity="1" stop-color="rgb(65.727234%, 30.882263%, 63.873291%)" offset="0.378906"/><stop stop-opacity="1" stop-color="rgb(65.423584%, 30.651855%, 64.172363%)" offset="0.382812"/><stop stop-opacity="1" stop-color="rgb(65.118408%, 30.419922%, 64.471436%)" offset="0.386719"/><stop stop-opacity="1" stop-color="rgb(64.813232%, 30.189514%, 64.772034%)" offset="0.390625"/><stop stop-opacity="1" stop-color="rgb(64.508057%, 29.957581%, 65.071106%)" offset="0.394531"/><stop stop-opacity="1" stop-color="rgb(64.204407%, 29.727173%, 65.370178%)" offset="0.398437"/><stop stop-opacity="1" stop-color="rgb(63.899231%, 29.495239%, 65.66925%)" offset="0.402344"/><stop stop-opacity="1" stop-color="rgb(63.594055%, 29.263306%, 65.969849%)" offset="0.40625"/><stop stop-opacity="1" stop-color="rgb(63.288879%, 29.031372%, 66.268921%)" offset="0.410156"/><stop stop-opacity="1" stop-color="rgb(62.985229%, 28.800964%, 66.567993%)" offset="0.414062"/><stop stop-opacity="1" stop-color="rgb(62.680054%, 28.569031%, 66.867065%)" offset="0.417969"/><stop stop-opacity="1" stop-color="rgb(62.374878%, 28.338623%, 67.167664%)" offset="0.421875"/><stop stop-opacity="1" stop-color="rgb(62.069702%, 28.106689%, 67.466736%)" offset="0.425781"/><stop stop-opacity="1" stop-color="rgb(61.766052%, 27.876282%, 67.765808%)" offset="0.429688"/><stop stop-opacity="1" stop-color="rgb(61.460876%, 27.644348%, 68.06488%)" offset="0.433594"/><stop stop-opacity="1" stop-color="rgb(61.155701%, 27.412415%, 68.365479%)" offset="0.4375"/><stop stop-opacity="1" stop-color="rgb(60.850525%, 27.180481%, 68.664551%)" offset="0.441406"/><stop stop-opacity="1" stop-color="rgb(60.546875%, 26.950073%, 68.963623%)" offset="0.445312"/><stop stop-opacity="1" stop-color="rgb(60.241699%, 26.71814%, 69.262695%)" offset="0.449219"/><stop stop-opacity="1" stop-color="rgb(59.938049%, 26.487732%, 69.563293%)" offset="0.453125"/><stop stop-opacity="1" stop-color="rgb(59.632874%, 26.255798%, 69.862366%)" offset="0.457031"/><stop stop-opacity="1" stop-color="rgb(59.327698%, 26.025391%, 70.161438%)" offset="0.460937"/><stop stop-opacity="1" stop-color="rgb(59.022522%, 25.793457%, 70.46051%)" offset="0.464844"/><stop stop-opacity="1" stop-color="rgb(58.718872%, 25.563049%, 70.761108%)" offset="0.46875"/><stop stop-opacity="1" stop-color="rgb(58.413696%, 25.331116%, 71.060181%)" offset="0.472656"/><stop stop-opacity="1" stop-color="rgb(58.108521%, 25.099182%, 71.359253%)" offset="0.476562"/><stop stop-opacity="1" stop-color="rgb(57.803345%, 24.867249%, 71.658325%)" offset="0.480469"/><stop stop-opacity="1" stop-color="rgb(57.499695%, 24.636841%, 71.958923%)" offset="0.484375"/><stop stop-opacity="1" stop-color="rgb(57.194519%, 24.404907%, 72.257996%)" offset="0.488281"/><stop stop-opacity="1" stop-color="rgb(56.889343%, 24.1745%, 72.557068%)" offset="0.492187"/><stop stop-opacity="1" stop-color="rgb(56.584167%, 23.942566%, 72.85614%)" offset="0.496094"/><stop stop-opacity="1" stop-color="rgb(56.280518%, 23.712158%, 73.156738%)" offset="0.5"/><stop stop-opacity="1" stop-color="rgb(55.975342%, 23.480225%, 73.455811%)" offset="0.503906"/><stop stop-opacity="1" stop-color="rgb(55.670166%, 23.248291%, 73.754883%)" offset="0.507812"/><stop stop-opacity="1" stop-color="rgb(55.36499%, 23.016357%, 74.053955%)" offset="0.511719"/><stop stop-opacity="1" stop-color="rgb(55.06134%, 22.78595%, 74.353027%)" offset="0.515625"/><stop stop-opacity="1" stop-color="rgb(54.756165%, 22.554016%, 74.6521%)" offset="0.519531"/><stop stop-opacity="1" stop-color="rgb(54.452515%, 22.323608%, 74.952698%)" offset="0.523437"/><stop stop-opacity="1" stop-color="rgb(54.147339%, 22.091675%, 75.25177%)" offset="0.527344"/><stop stop-opacity="1" stop-color="rgb(53.842163%, 21.861267%, 75.550842%)" offset="0.53125"/><stop stop-opacity="1" stop-color="rgb(53.536987%, 21.629333%, 75.849915%)" offset="0.535156"/><stop stop-opacity="1" stop-color="rgb(53.233337%, 21.398926%, 76.150513%)" offset="0.539062"/><stop stop-opacity="1" stop-color="rgb(52.928162%, 21.166992%, 76.449585%)" offset="0.542969"/><stop stop-opacity="1" stop-color="rgb(52.622986%, 20.935059%, 76.748657%)" offset="0.546875"/><stop stop-opacity="1" stop-color="rgb(52.31781%, 20.703125%, 77.047729%)" offset="0.550781"/><stop stop-opacity="1" stop-color="rgb(52.01416%, 20.472717%, 77.348328%)" offset="0.554688"/><stop stop-opacity="1" stop-color="rgb(51.708984%, 20.240784%, 77.6474%)" offset="0.558594"/><stop stop-opacity="1" stop-color="rgb(51.403809%, 20.010376%, 77.946472%)" offset="0.5625"/><stop stop-opacity="1" stop-color="rgb(51.098633%, 19.778442%, 78.245544%)" offset="0.566406"/><stop stop-opacity="1" stop-color="rgb(50.794983%, 19.548035%, 78.546143%)" offset="0.570312"/><stop stop-opacity="1" stop-color="rgb(50.489807%, 19.316101%, 78.845215%)" offset="0.574219"/><stop stop-opacity="1" stop-color="rgb(50.184631%, 19.084167%, 79.144287%)" offset="0.578125"/><stop stop-opacity="1" stop-color="rgb(49.879456%, 18.852234%, 79.443359%)" offset="0.582031"/><stop stop-opacity="1" stop-color="rgb(49.575806%, 18.621826%, 79.743958%)" offset="0.585937"/><stop stop-opacity="1" stop-color="rgb(49.27063%, 18.389893%, 80.04303%)" offset="0.589844"/><stop stop-opacity="1" stop-color="rgb(48.96698%, 18.159485%, 80.342102%)" offset="0.59375"/><stop stop-opacity="1" stop-color="rgb(48.661804%, 17.927551%, 80.641174%)" offset="0.597656"/><stop stop-opacity="1" stop-color="rgb(48.356628%, 17.697144%, 80.941772%)" offset="0.601562"/><stop stop-opacity="1" stop-color="rgb(48.051453%, 17.46521%, 81.240845%)" offset="0.605469"/><stop stop-opacity="1" stop-color="rgb(47.747803%, 17.234802%, 81.539917%)" offset="0.609375"/><stop stop-opacity="1" stop-color="rgb(47.442627%, 17.002869%, 81.838989%)" offset="0.613281"/><stop stop-opacity="1" stop-color="rgb(47.137451%, 16.770935%, 82.139587%)" offset="0.617188"/><stop stop-opacity="1" stop-color="rgb(46.832275%, 16.539001%, 82.43866%)" offset="0.621094"/><stop stop-opacity="1" stop-color="rgb(46.528625%, 16.308594%, 82.737732%)" offset="0.625"/><stop stop-opacity="1" stop-color="rgb(46.22345%, 16.07666%, 83.036804%)" offset="0.628906"/><stop stop-opacity="1" stop-color="rgb(45.918274%, 15.846252%, 83.337402%)" offset="0.632812"/><stop stop-opacity="1" stop-color="rgb(45.613098%, 15.614319%, 83.636475%)" offset="0.636719"/><stop stop-opacity="1" stop-color="rgb(45.309448%, 15.383911%, 83.935547%)" offset="0.640625"/><stop stop-opacity="1" stop-color="rgb(45.004272%, 15.151978%, 84.234619%)" offset="0.644531"/><stop stop-opacity="1" stop-color="rgb(44.699097%, 14.920044%, 84.535217%)" offset="0.648438"/><stop stop-opacity="1" stop-color="rgb(44.393921%, 14.68811%, 84.83429%)" offset="0.652344"/><stop stop-opacity="1" stop-color="rgb(44.090271%, 14.457703%, 85.133362%)" offset="0.65625"/><stop stop-opacity="1" stop-color="rgb(43.785095%, 14.225769%, 85.432434%)" offset="0.660156"/><stop stop-opacity="1" stop-color="rgb(43.481445%, 13.995361%, 85.733032%)" offset="0.664062"/><stop stop-opacity="1" stop-color="rgb(43.17627%, 13.763428%, 86.032104%)" offset="0.667969"/><stop stop-opacity="1" stop-color="rgb(42.871094%, 13.53302%, 86.331177%)" offset="0.671875"/><stop stop-opacity="1" stop-color="rgb(42.565918%, 13.301086%, 86.630249%)" offset="0.675781"/><stop stop-opacity="1" stop-color="rgb(42.262268%, 13.070679%, 86.930847%)" offset="0.679687"/><stop stop-opacity="1" stop-color="rgb(41.957092%, 12.838745%, 87.229919%)" offset="0.683594"/><stop stop-opacity="1" stop-color="rgb(41.651917%, 12.606812%, 87.528992%)" offset="0.6875"/><stop stop-opacity="1" stop-color="rgb(41.346741%, 12.374878%, 87.828064%)" offset="0.691406"/><stop stop-opacity="1" stop-color="rgb(41.043091%, 12.14447%, 88.128662%)" offset="0.695312"/><stop stop-opacity="1" stop-color="rgb(40.737915%, 11.912537%, 88.427734%)" offset="0.699219"/><stop stop-opacity="1" stop-color="rgb(40.432739%, 11.682129%, 88.726807%)" offset="0.703125"/><stop stop-opacity="1" stop-color="rgb(40.127563%, 11.450195%, 89.025879%)" offset="0.707031"/><stop stop-opacity="1" stop-color="rgb(39.823914%, 11.219788%, 89.324951%)" offset="0.710938"/><stop stop-opacity="1" stop-color="rgb(39.518738%, 10.987854%, 89.624023%)" offset="0.714844"/><stop stop-opacity="1" stop-color="rgb(39.213562%, 10.75592%, 89.924622%)" offset="0.71875"/><stop stop-opacity="1" stop-color="rgb(38.908386%, 10.523987%, 90.223694%)" offset="0.722656"/><stop stop-opacity="1" stop-color="rgb(38.604736%, 10.293579%, 90.522766%)" offset="0.726562"/><stop stop-opacity="1" stop-color="rgb(38.299561%, 10.061646%, 90.821838%)" offset="0.730469"/><stop stop-opacity="1" stop-color="rgb(37.995911%, 9.831238%, 91.122437%)" offset="0.734375"/><stop stop-opacity="1" stop-color="rgb(37.690735%, 9.599304%, 91.421509%)" offset="0.738281"/><stop stop-opacity="1" stop-color="rgb(37.385559%, 9.368896%, 91.720581%)" offset="0.742188"/><stop stop-opacity="1" stop-color="rgb(37.141418%, 9.184265%, 91.960144%)" offset="0.746094"/><stop stop-opacity="1" stop-color="rgb(36.898804%, 8.999634%, 92.199707%)" offset="0.75"/><stop stop-opacity="1" stop-color="rgb(36.898804%, 8.999634%, 92.199707%)" offset="1"/></linearGradient><clipPath id="5611c67d49"><path d="M 5 92.234375 L 187.5 92.234375 L 187.5 292.484375 L 5 292.484375 Z M 5 92.234375 " clip-rule="nonzero"/></clipPath><clipPath id="9f21d7f43c"><path d="M 187.5 92.234375 L 370 92.234375 L 370 292.484375 L 187.5 292.484375 Z M 187.5 92.234375 " clip-rule="nonzero"/></clipPath><clipPath id="5117745180"><path d="M 120 93 L 255 93 L 255 227.984375 L 120 227.984375 Z M 120 93 " clip-rule="nonzero"/></clipPath></defs><g clip-path="url(#9fa3168bb2)"><rect x="-37.5" fill="url(#beadb2b2cc)" width="450" y="-37.499999" height="449.999989"/></g><g clip-path="url(#5611c67d49)"><path fill="#ffffff" d="M 187.488281 292.484375 C 179.355469 279.105469 155.878906 268.242188 141.335938 264.125 C 113.046875 255.890625 96.328125 257.832031 68.269531 248.683594 C 38.949219 239.078125 17.878906 224.554688 7.800781 195.734375 C 0.0117188 213.804688 11.921875 249.371094 28.871094 258.75 C 48.113281 269.382812 59.792969 270.527344 97.359375 270.527344 C 136.984375 270.527344 138.355469 270.871094 156.222656 275.902344 C 166.757812 278.648438 178.441406 286.652344 187.488281 292.484375 Z M 92.546875 235.988281 C 80.40625 230.957031 73.535156 227.640625 62.199219 221.121094 C 44.90625 211.289062 28.414062 196.078125 22.917969 177.09375 C 18.566406 161.996094 21.085938 145.527344 27.15625 131.003906 C 29.101562 126.316406 31.390625 121.855469 33.910156 117.394531 C 37.003906 147.703125 46.507812 177.777344 66.4375 200.765625 C 74.453125 210.03125 98.503906 232.558594 117.855469 245.941406 C 110.984375 242.625 99.417969 238.847656 92.546875 235.988281 Z M 79.492188 197.90625 C 73.078125 189.671875 69.871094 185.210938 64.488281 176.292969 C 56.359375 162.683594 52.351562 146.101562 56.015625 130.660156 C 58.878906 118.308594 65.40625 106.757812 75.253906 99.097656 C 78.460938 96.582031 81.78125 94.410156 85.332031 92.234375 C 75.597656 114.535156 69.757812 144.15625 74.566406 167.828125 C 76.515625 177.4375 82.925781 197.792969 93.121094 214.71875 C 89.683594 209.800781 83.15625 202.597656 79.492188 197.90625 Z M 79.492188 197.90625 " fill-opacity="1" fill-rule="nonzero"/></g><g clip-path="url(#9f21d7f43c)"><path fill="#ffffff" d="M 187.511719 292.484375 C 195.644531 279.105469 219.121094 268.242188 233.664062 264.125 C 261.953125 255.890625 278.671875 257.832031 306.730469 248.683594 C 336.050781 239.078125 357.121094 224.554688 367.199219 195.734375 C 374.988281 213.804688 363.078125 249.371094 346.128906 258.75 C 326.886719 269.382812 315.207031 270.527344 277.640625 270.527344 C 238.015625 270.527344 236.644531 270.871094 218.777344 275.902344 C 208.242188 278.648438 196.558594 286.652344 187.511719 292.484375 Z M 282.453125 235.988281 C 294.59375 230.957031 301.464844 227.640625 312.800781 221.121094 C 330.09375 211.289062 346.585938 196.078125 352.082031 177.09375 C 356.433594 161.996094 353.914062 145.527344 347.84375 131.003906 C 345.898438 126.316406 343.609375 121.855469 341.089844 117.394531 C 337.996094 147.703125 328.492188 177.777344 308.5625 200.765625 C 300.546875 210.03125 276.496094 232.558594 257.144531 245.941406 C 264.015625 242.625 275.582031 238.847656 282.453125 235.988281 Z M 295.507812 197.90625 C 301.921875 189.671875 305.128906 185.210938 310.511719 176.292969 C 318.640625 162.683594 322.648438 146.101562 318.984375 130.660156 C 316.121094 118.308594 309.59375 106.757812 299.746094 99.097656 C 296.539062 96.582031 293.21875 94.410156 289.667969 92.234375 C 299.402344 114.535156 305.242188 144.15625 300.433594 167.828125 C 298.484375 177.4375 292.074219 197.792969 281.878906 214.71875 C 285.316406 209.800781 291.84375 202.597656 295.507812 197.90625 Z M 295.507812 197.90625 " fill-opacity="1" fill-rule="nonzero"/></g><g clip-path="url(#5117745180)"><path fill="#ffffff" d="M 129.796875 192.882812 C 133.179688 189.484375 137.695312 187.613281 142.511719 187.613281 L 250.484375 187.613281 L 250.484375 194.359375 L 144.761719 194.359375 C 141.597656 194.359375 138.566406 195.707031 136.4375 198.042969 C 134.3125 200.378906 133.265625 203.535156 133.566406 206.707031 C 134.101562 212.402344 139.1875 216.855469 145.136719 216.855469 L 250.484375 216.855469 L 250.484375 223.605469 L 143.238281 223.605469 C 138.257812 223.605469 133.335938 221.53125 129.742188 217.917969 C 126.34375 214.492188 124.488281 210.082031 124.515625 205.492188 C 124.550781 200.722656 126.421875 196.25 129.796875 192.882812 Z M 178.609375 182.945312 C 179.363281 182.226562 180.074219 181.550781 180.847656 180.953125 C 182.949219 179.328125 183.816406 178.648438 187.472656 178.613281 C 191.183594 178.648438 192.050781 179.328125 194.214844 180.996094 C 194.925781 181.550781 195.636719 182.226562 196.390625 182.945312 C 196.445312 183.007812 196.515625 183.0625 196.566406 183.113281 L 178.433594 183.113281 C 178.492188 183.0625 178.554688 183.007812 178.609375 182.945312 Z M 152.421875 133.300781 C 152.898438 130.847656 153.378906 128.996094 154.339844 127.335938 C 155.285156 125.691406 156.605469 124.160156 158.25 122.792969 C 161.035156 120.460938 164.460938 118.835938 168.125 118.109375 C 171.761719 117.414062 175.039062 118.40625 178.527344 119.460938 C 179.25 119.671875 179.96875 119.863281 180.679688 120.058594 C 180.707031 120.445312 180.726562 120.839844 180.726562 121.253906 C 180.726562 125.59375 184.273438 129.125 188.625 129.125 C 192.683594 129.125 196.003906 126.015625 196.417969 122.0625 C 200.046875 121.351562 203.175781 119.488281 205.277344 117.949219 C 205.792969 117.976562 206.3125 118.003906 206.859375 118.109375 C 215.039062 119.734375 220.609375 125.4375 221.875 130.214844 C 223.507812 136.410156 223.914062 143.222656 223.078125 150.433594 C 222.199219 157.992188 219.792969 168.765625 213.28125 177.191406 C 210.910156 180.230469 208.648438 182.078125 206.367188 182.816406 C 203.789062 183.640625 202.164062 182.242188 199.503906 179.695312 C 198.703125 178.929688 197.867188 178.140625 196.902344 177.394531 C 194.320312 175.390625 192.480469 174.167969 187.472656 174.117188 C 182.519531 174.167969 180.679688 175.390625 178.019531 177.445312 C 177.132812 178.140625 176.296875 178.929688 175.496094 179.695312 C 172.835938 182.242188 171.207031 183.648438 168.644531 182.816406 C 166.351562 182.078125 164.089844 180.230469 161.71875 177.191406 C 153.097656 166.03125 149.445312 148.792969 152.421875 133.300781 Z M 174.039062 104.199219 C 172.28125 103.574219 171.347656 101.660156 171.945312 99.910156 C 172.421875 98.523438 173.703125 97.644531 175.109375 97.644531 C 175.480469 97.644531 175.847656 97.703125 176.21875 97.828125 C 176.304688 97.855469 184.742188 100.605469 189.25 109.292969 C 190.621094 111.902344 191.488281 114.855469 191.824219 118.019531 C 191.894531 118.714844 191.953125 119.410156 191.980469 120.214844 C 192 120.550781 192 120.894531 192 121.253906 C 192 123.117188 190.488281 124.628906 188.625 124.628906 C 186.753906 124.628906 185.222656 123.117188 185.222656 121.253906 C 185.222656 120.050781 185.144531 118.925781 184.976562 117.96875 C 183.414062 107.757812 174.980469 104.53125 174.039062 104.199219 Z M 197.824219 104.820312 L 197.816406 104.8125 C 197.878906 104.769531 197.9375 104.714844 197.992188 104.664062 C 201.402344 102.195312 205.925781 101.773438 209.644531 102.265625 C 209 105.164062 207.375 110.445312 203.660156 113.511719 C 201.285156 115.472656 198.695312 116.84375 196.285156 117.476562 C 195.933594 114.292969 195.109375 111.332031 193.878906 108.617188 C 195.03125 107.300781 196.304688 105.980469 197.824219 104.820312 Z M 241.488281 212.355469 L 145.136719 212.355469 C 141.484375 212.355469 138.363281 209.683594 138.039062 206.277344 C 137.863281 204.34375 138.46875 202.488281 139.769531 201.066406 C 141.042969 199.660156 142.863281 198.859375 144.761719 198.859375 L 241.488281 198.859375 Z M 143.238281 228.101562 L 250.484375 228.101562 C 252.960938 228.101562 254.984375 226.082031 254.984375 223.605469 L 254.984375 216.855469 C 254.984375 214.378906 252.960938 212.355469 250.484375 212.355469 L 245.984375 212.355469 L 245.984375 198.859375 L 250.484375 198.859375 C 252.960938 198.859375 254.984375 196.839844 254.984375 194.359375 L 254.984375 187.613281 C 254.984375 185.132812 252.960938 183.113281 250.484375 183.113281 L 214 183.113281 C 214.960938 182.199219 215.898438 181.152344 216.832031 179.949219 C 223.984375 170.699219 226.601562 159.074219 227.542969 150.953125 C 228.445312 143.175781 228.007812 135.8125 226.234375 129.066406 C 224.414062 122.21875 217.570312 116.226562 209.28125 114.058594 C 213.542969 108.441406 214.441406 101.085938 214.476562 100.71875 C 214.609375 99.59375 213.878906 98.546875 212.769531 98.285156 C 207.78125 97.070312 200.53125 97.175781 195.207031 101.140625 C 195.117188 101.203125 195.039062 101.261719 194.96875 101.34375 C 193.675781 102.335938 192.578125 103.398438 191.578125 104.46875 C 185.980469 96.21875 177.640625 93.558594 177.605469 93.546875 C 173.527344 92.167969 169.074219 94.367188 167.695312 98.453125 C 166.289062 102.519531 168.457031 106.992188 172.535156 108.441406 C 172.773438 108.519531 177.210938 110.136719 179.449219 115.042969 C 175.714844 113.917969 171.839844 112.816406 167.261719 113.695312 C 162.84375 114.574219 158.730469 116.527344 155.367188 119.339844 C 153.320312 121.050781 151.667969 122.984375 150.445312 125.074219 C 149.03125 127.527344 148.441406 130.164062 148.003906 132.449219 C 144.796875 149.160156 148.785156 167.808594 158.167969 179.949219 C 159.109375 181.152344 160.050781 182.199219 161 183.113281 L 142.511719 183.113281 C 136.492188 183.113281 130.839844 185.460938 126.613281 189.703125 C 122.40625 193.894531 120.050781 199.492188 120.015625 205.457031 C 119.980469 211.257812 122.300781 216.8125 126.554688 221.089844 C 130.980469 225.546875 137.0625 228.101562 143.238281 228.101562 " fill-opacity="1" fill-rule="nonzero"/></g><path fill="#ffffff" d="M 161.894531 155.636719 C 160.59375 149.6875 160.171875 144.089844 160.65625 139.019531 C 160.964844 135.839844 161.640625 131.894531 164.257812 129.546875 C 165.179688 128.722656 165.261719 127.300781 164.425781 126.375 C 163.597656 125.445312 162.175781 125.375 161.253906 126.199219 C 157.476562 129.59375 156.550781 134.601562 156.183594 138.589844 C 155.65625 144.132812 156.09375 150.199219 157.5 156.601562 C 157.730469 157.648438 158.660156 158.371094 159.699219 158.371094 C 159.855469 158.371094 160.015625 158.351562 160.179688 158.316406 C 161.394531 158.054688 162.160156 156.847656 161.894531 155.636719 " fill-opacity="1" fill-rule="nonzero"/><path fill="#ffffff" d="M 171.464844 126.9375 C 172.078125 127.019531 172.738281 127.167969 173.433594 127.351562 C 173.625 127.394531 173.820312 127.421875 174.003906 127.421875 C 175.003906 127.421875 175.910156 126.753906 176.183594 125.742188 C 176.488281 124.539062 175.777344 123.308594 174.574219 122.992188 C 173.589844 122.738281 172.789062 122.570312 172.042969 122.476562 C 170.804688 122.316406 169.6875 123.1875 169.523438 124.417969 C 169.363281 125.648438 170.234375 126.78125 171.464844 126.9375 " fill-opacity="1" fill-rule="nonzero"/><path fill="#ffffff" d="M 230.238281 207.859375 L 232.488281 207.859375 C 233.726562 207.859375 234.738281 206.847656 234.738281 205.609375 C 234.738281 204.371094 233.726562 203.359375 232.488281 203.359375 L 230.238281 203.359375 C 229 203.359375 227.988281 204.371094 227.988281 205.609375 C 227.988281 206.847656 229 207.859375 230.238281 207.859375 " fill-opacity="1" fill-rule="nonzero"/><path fill="#ffffff" d="M 178.503906 207.859375 L 180.75 207.859375 C 181.992188 207.859375 183 206.847656 183 205.609375 C 183 204.371094 181.992188 203.359375 180.75 203.359375 L 178.503906 203.359375 C 177.261719 203.359375 176.253906 204.371094 176.253906 205.609375 C 176.253906 206.847656 177.261719 207.859375 178.503906 207.859375 " fill-opacity="1" fill-rule="nonzero"/><path fill="#ffffff" d="M 189.75 207.859375 L 221.242188 207.859375 C 222.480469 207.859375 223.492188 206.847656 223.492188 205.609375 C 223.492188 204.371094 222.480469 203.359375 221.242188 203.359375 L 189.75 203.359375 C 188.511719 203.359375 187.5 204.371094 187.5 205.609375 C 187.5 206.847656 188.511719 207.859375 189.75 207.859375 " fill-opacity="1" fill-rule="nonzero"/><path fill="#ffffff" d="M 149.257812 207.859375 L 169.503906 207.859375 C 170.742188 207.859375 171.753906 206.847656 171.753906 205.609375 C 171.753906 204.371094 170.742188 203.359375 169.503906 203.359375 L 149.257812 203.359375 C 148.019531 203.359375 147.007812 204.371094 147.007812 205.609375 C 147.007812 206.847656 148.019531 207.859375 149.257812 207.859375 " fill-opacity="1" fill-rule="nonzero"/></svg>